%TF.GenerationSoftware,KiCad,Pcbnew,9.0.0*%
%TF.CreationDate,2025-03-28T11:32:37-07:00*%
%TF.ProjectId,XIAO-ESP32-S3-PCB,5849414f-2d45-4535-9033-322d53332d50,rev?*%
%TF.SameCoordinates,Original*%
%TF.FileFunction,Copper,L1,Top*%
%TF.FilePolarity,Positive*%
%FSLAX46Y46*%
G04 Gerber Fmt 4.6, Leading zero omitted, Abs format (unit mm)*
G04 Created by KiCad (PCBNEW 9.0.0) date 2025-03-28 11:32:37*
%MOMM*%
%LPD*%
G01*
G04 APERTURE LIST*
G04 Aperture macros list*
%AMRoundRect*
0 Rectangle with rounded corners*
0 $1 Rounding radius*
0 $2 $3 $4 $5 $6 $7 $8 $9 X,Y pos of 4 corners*
0 Add a 4 corners polygon primitive as box body*
4,1,4,$2,$3,$4,$5,$6,$7,$8,$9,$2,$3,0*
0 Add four circle primitives for the rounded corners*
1,1,$1+$1,$2,$3*
1,1,$1+$1,$4,$5*
1,1,$1+$1,$6,$7*
1,1,$1+$1,$8,$9*
0 Add four rect primitives between the rounded corners*
20,1,$1+$1,$2,$3,$4,$5,0*
20,1,$1+$1,$4,$5,$6,$7,0*
20,1,$1+$1,$6,$7,$8,$9,0*
20,1,$1+$1,$8,$9,$2,$3,0*%
G04 Aperture macros list end*
%TA.AperFunction,NonConductor*%
%ADD10C,0.200000*%
%TD*%
%TA.AperFunction,SMDPad,CuDef*%
%ADD11R,1.000000X1.000000*%
%TD*%
%TA.AperFunction,SMDPad,CuDef*%
%ADD12R,1.000000X1.400000*%
%TD*%
%TA.AperFunction,ComponentPad*%
%ADD13R,1.500000X1.500000*%
%TD*%
%TA.AperFunction,ComponentPad*%
%ADD14C,1.500000*%
%TD*%
%TA.AperFunction,SMDPad,CuDef*%
%ADD15R,3.500000X1.000000*%
%TD*%
%TA.AperFunction,SMDPad,CuDef*%
%ADD16R,3.400000X1.500000*%
%TD*%
%TA.AperFunction,SMDPad,CuDef*%
%ADD17RoundRect,0.250000X-0.450000X0.350000X-0.450000X-0.350000X0.450000X-0.350000X0.450000X0.350000X0*%
%TD*%
%TA.AperFunction,SMDPad,CuDef*%
%ADD18RoundRect,0.500000X-0.500000X0.875000X-0.500000X-0.875000X0.500000X-0.875000X0.500000X0.875000X0*%
%TD*%
%TA.AperFunction,SMDPad,CuDef*%
%ADD19RoundRect,0.275000X0.275000X-0.975000X0.275000X0.975000X-0.275000X0.975000X-0.275000X-0.975000X0*%
%TD*%
%TA.AperFunction,SMDPad,CuDef*%
%ADD20C,1.700000*%
%TD*%
%TA.AperFunction,SMDPad,CuDef*%
%ADD21RoundRect,0.250000X0.450000X-0.350000X0.450000X0.350000X-0.450000X0.350000X-0.450000X-0.350000X0*%
%TD*%
%TA.AperFunction,ComponentPad*%
%ADD22O,1.600000X2.000000*%
%TD*%
%TA.AperFunction,Conductor*%
%ADD23C,1.500000*%
%TD*%
%TA.AperFunction,Conductor*%
%ADD24C,1.000000*%
%TD*%
G04 APERTURE END LIST*
D10*
X119500000Y-62750000D02*
X164500000Y-62750000D01*
X164500000Y-97750000D01*
X119500000Y-97750000D01*
X119500000Y-62750000D01*
D11*
%TO.P,SW1,0,0*%
%TO.N,GND*%
X133800100Y-65940900D03*
X126199900Y-65940900D03*
X133800100Y-68141100D03*
X126199900Y-68141100D03*
D12*
%TO.P,SW1,1,1*%
%TO.N,SWITCH_V_BATT*%
X132249900Y-69059000D03*
%TO.P,SW1,2,2*%
%TO.N,V_BATT*%
X129249900Y-69059000D03*
%TO.P,SW1,3,3*%
X127750100Y-69059000D03*
%TD*%
D13*
%TO.P,S2,1,COM*%
%TO.N,PUSH_2*%
X124000000Y-76000000D03*
D14*
%TO.P,S2,2,NO*%
%TO.N,GND*%
X124000000Y-71000000D03*
%TD*%
D13*
%TO.P,S1,1,COM*%
%TO.N,PUSH_1*%
X124000000Y-89500000D03*
D14*
%TO.P,S1,2,NO*%
%TO.N,GND*%
X124000000Y-84500000D03*
%TD*%
D15*
%TO.P,J2,1,1*%
%TO.N,GND*%
X150375000Y-69000000D03*
%TO.P,J2,2,2*%
%TO.N,V_BATT*%
X150375000Y-67000000D03*
D16*
%TO.P,J2,3,MP1*%
%TO.N,GND*%
X156125000Y-71350000D03*
%TO.P,J2,4,MP2*%
X156125000Y-64650000D03*
%TD*%
D17*
%TO.P,R2,1*%
%TO.N,SWITCH_V_BATT*%
X130000000Y-79000000D03*
%TO.P,R2,2*%
%TO.N,SWITCH_DIV_V_BATT*%
X130000000Y-81000000D03*
%TD*%
D18*
%TO.P,U1,1,GPIO1_A0_D0*%
%TO.N,unconnected-(U1-GPIO1_A0_D0-Pad1)*%
X149573000Y-75938636D03*
%TO.P,U1,2,GPIO2_A1_D1*%
%TO.N,unconnected-(U1-GPIO2_A1_D1-Pad2)*%
X147033000Y-75938636D03*
%TO.P,U1,3,GPIO3_A2_D2*%
%TO.N,unconnected-(U1-GPIO3_A2_D2-Pad3)*%
X144493000Y-75938636D03*
%TO.P,U1,4,GPIO4_A3_D3*%
%TO.N,unconnected-(U1-GPIO4_A3_D3-Pad4)*%
X141953000Y-75938636D03*
%TO.P,U1,5,GPIO5_A4_D4_SDA*%
%TO.N,SDA*%
X139413000Y-75938636D03*
%TO.P,U1,6,GPIO6_A5_D5_SCL*%
%TO.N,SCL*%
X136873000Y-75938636D03*
%TO.P,U1,7,GPIO43_A6_D6_TX*%
%TO.N,unconnected-(U1-GPIO43_A6_D6_TX-Pad7)*%
X134333000Y-75938636D03*
%TO.P,U1,8,GPIO44_D7_RX*%
%TO.N,unconnected-(U1-GPIO44_D7_RX-Pad8)*%
X134333000Y-92103636D03*
%TO.P,U1,9,GPIO7_A8_D8_SCK*%
%TO.N,PUSH_2*%
X136873000Y-92103636D03*
%TO.P,U1,10,GPIO8_A9_D9_MISO*%
%TO.N,PUSH_1*%
X139413000Y-92103636D03*
%TO.P,U1,11,GPIO9_A10_D10_MOSI*%
%TO.N,SWITCH_DIV_V_BATT*%
X141953000Y-92103636D03*
%TO.P,U1,12,3V3*%
%TO.N,3V3*%
X144493000Y-92103636D03*
%TO.P,U1,13,GND*%
%TO.N,GND*%
X147033000Y-92103636D03*
%TO.P,U1,14,5V*%
%TO.N,unconnected-(U1-5V-Pad14)*%
X149573000Y-92103636D03*
D19*
%TO.P,U1,15,BAT*%
%TO.N,SWITCH_V_BATT*%
X142335000Y-79548636D03*
%TO.P,U1,16,GND*%
%TO.N,GND*%
X144240000Y-79548636D03*
D20*
%TO.P,U1,17,MTDI*%
%TO.N,unconnected-(U1-MTDI-Pad17)*%
X150585000Y-82723636D03*
%TO.P,U1,18,MTDO*%
%TO.N,unconnected-(U1-MTDO-Pad18)*%
X150585000Y-85263636D03*
%TO.P,U1,19,CHIP_EN*%
%TO.N,unconnected-(U1-CHIP_EN-Pad19)*%
X148045000Y-82723636D03*
%TO.P,U1,20,GND*%
%TO.N,GND*%
X148045000Y-85263636D03*
%TO.P,U1,21,MTMS*%
%TO.N,unconnected-(U1-MTMS-Pad21)*%
X145505000Y-82723636D03*
%TO.P,U1,22,MTCK*%
%TO.N,unconnected-(U1-MTCK-Pad22)*%
X145505000Y-85263636D03*
%TO.P,U1,23,USB_DN*%
%TO.N,unconnected-(U1-USB_DN-Pad23)*%
X142965000Y-82723636D03*
%TO.P,U1,24,USB_DP*%
%TO.N,unconnected-(U1-USB_DP-Pad24)*%
X142965000Y-85263636D03*
%TD*%
D21*
%TO.P,R1,1*%
%TO.N,SWITCH_DIV_V_BATT*%
X128000000Y-81000000D03*
%TO.P,R1,2*%
%TO.N,GND*%
X128000000Y-79000000D03*
%TD*%
D22*
%TO.P,Brd1,1,GND*%
%TO.N,GND*%
X145870000Y-68250000D03*
%TO.P,Brd1,2,VCC*%
%TO.N,3V3*%
X143330000Y-68250000D03*
%TO.P,Brd1,3,SCL*%
%TO.N,SCL*%
X140790000Y-68250000D03*
%TO.P,Brd1,4,SDA*%
%TO.N,SDA*%
X138250000Y-68250000D03*
%TD*%
D23*
%TO.N,3V3*%
X143330000Y-69830000D02*
X143330000Y-68250000D01*
X153000000Y-93000000D02*
X153000000Y-74500000D01*
X150500000Y-72000000D02*
X145500000Y-72000000D01*
X150500000Y-95500000D02*
X153000000Y-93000000D01*
X146000000Y-95500000D02*
X150500000Y-95500000D01*
X144493000Y-93993000D02*
X146000000Y-95500000D01*
X153000000Y-74500000D02*
X150500000Y-72000000D01*
X144493000Y-92103636D02*
X144493000Y-93993000D01*
X145500000Y-72000000D02*
X143330000Y-69830000D01*
%TO.N,SCL*%
X140790000Y-67290000D02*
X140790000Y-68250000D01*
X139500000Y-66000000D02*
X140790000Y-67290000D01*
X136000000Y-67000000D02*
X137000000Y-66000000D01*
X136000000Y-72000000D02*
X136000000Y-67000000D01*
X136873000Y-72873000D02*
X136000000Y-72000000D01*
X137000000Y-66000000D02*
X139500000Y-66000000D01*
X136873000Y-75938636D02*
X136873000Y-72873000D01*
%TO.N,V_BATT*%
X129249900Y-69059000D02*
X127750100Y-69059000D01*
%TO.N,SWITCH_V_BATT*%
X130000000Y-76500000D02*
X130000000Y-74000000D01*
X130000000Y-74000000D02*
X132249900Y-71750100D01*
X132249900Y-71750100D02*
X132249900Y-69018000D01*
%TO.N,V_BATT*%
X129950900Y-68317000D02*
X129249900Y-69018000D01*
X132349876Y-64000000D02*
X129950900Y-66398976D01*
X145500000Y-64000000D02*
X132349876Y-64000000D01*
X148500000Y-67000000D02*
X145500000Y-64000000D01*
X150375000Y-67000000D02*
X148500000Y-67000000D01*
X129950900Y-66398976D02*
X129950900Y-68317000D01*
%TO.N,SWITCH_DIV_V_BATT*%
X130000000Y-84500000D02*
X130000000Y-81000000D01*
X140000000Y-88500000D02*
X134000000Y-88500000D01*
X141953000Y-90453000D02*
X140000000Y-88500000D01*
X134000000Y-88500000D02*
X130000000Y-84500000D01*
X141953000Y-92103636D02*
X141953000Y-90453000D01*
%TO.N,SWITCH_V_BATT*%
X142335000Y-79548636D02*
X133048636Y-79548636D01*
X133048636Y-79548636D02*
X130000000Y-76500000D01*
%TO.N,PUSH_1*%
X139413000Y-93337000D02*
X139413000Y-92103636D01*
X138574000Y-94176000D02*
X139413000Y-93337000D01*
X138574000Y-94183213D02*
X138574000Y-94176000D01*
X138574000Y-94183214D02*
X138574000Y-94183213D01*
X137577577Y-95179636D02*
X138574000Y-94183214D01*
X137552636Y-95204577D02*
X137577577Y-95179636D01*
X136556214Y-96201000D02*
X137552636Y-95204577D01*
X135147058Y-96201000D02*
X136549000Y-96201000D01*
X129201001Y-96201000D02*
X130610156Y-96201000D01*
X129201001Y-96201000D02*
X129201000Y-96201000D01*
X136556213Y-96201000D02*
X136556214Y-96201000D01*
X124000000Y-91000000D02*
X124648000Y-91648000D01*
X136549000Y-96201000D02*
X136556213Y-96201000D01*
X124648000Y-91648000D02*
X129201001Y-96201000D01*
X130610156Y-96201000D02*
X135147058Y-96201000D01*
X124000000Y-89500000D02*
X124000000Y-91000000D01*
%TO.N,PUSH_2*%
X135851636Y-94500000D02*
X136873000Y-93478636D01*
X136873000Y-93478636D02*
X136873000Y-92103636D01*
X129905578Y-94500000D02*
X135851636Y-94500000D01*
X126349000Y-83349000D02*
X126349000Y-90943422D01*
X126349000Y-90943422D02*
X129905578Y-94500000D01*
X124000000Y-76000000D02*
X124000000Y-81000000D01*
X124000000Y-81000000D02*
X126349000Y-83349000D01*
%TO.N,SWITCH_DIV_V_BATT*%
X130000000Y-81000000D02*
X128000000Y-81000000D01*
%TO.N,SWITCH_V_BATT*%
X130000000Y-76500000D02*
X130000000Y-79000000D01*
%TO.N,SDA*%
X139413000Y-71913000D02*
X138250000Y-70750000D01*
X138250000Y-70750000D02*
X138250000Y-68250000D01*
X139413000Y-75938636D02*
X139413000Y-71913000D01*
D24*
%TO.N,SCL*%
X140790000Y-67790000D02*
X140790000Y-68250000D01*
%TD*%
%TA.AperFunction,Conductor*%
%TO.N,GND*%
G36*
X132142600Y-63053868D02*
G01*
X132145968Y-63062000D01*
X132142600Y-63070132D01*
X132136712Y-63073279D01*
X132072628Y-63086026D01*
X132072625Y-63086026D01*
X131899656Y-63157673D01*
X131899644Y-63157678D01*
X131743970Y-63261696D01*
X129212595Y-65793071D01*
X129108578Y-65948743D01*
X129036926Y-66121726D01*
X129036925Y-66121731D01*
X129001566Y-66299499D01*
X129001566Y-66299500D01*
X129000400Y-66305361D01*
X129000400Y-66523080D01*
X128997032Y-66531212D01*
X128988900Y-66534580D01*
X128980768Y-66531212D01*
X128972636Y-66523080D01*
X128946442Y-66496886D01*
X128946438Y-66496883D01*
X128831713Y-66420226D01*
X128704226Y-66367419D01*
X128619598Y-66350586D01*
X128568893Y-66340500D01*
X128430907Y-66340500D01*
X128380202Y-66350586D01*
X128295575Y-66367419D01*
X128295572Y-66367419D01*
X128168086Y-66420226D01*
X128053361Y-66496883D01*
X127955783Y-66594461D01*
X127879126Y-66709186D01*
X127826319Y-66836672D01*
X127826319Y-66836675D01*
X127799400Y-66972008D01*
X127799400Y-67109991D01*
X127826319Y-67245324D01*
X127826319Y-67245327D01*
X127879126Y-67372813D01*
X127922461Y-67437668D01*
X127955786Y-67487542D01*
X128053358Y-67585114D01*
X128168089Y-67661775D01*
X128295572Y-67714580D01*
X128430907Y-67741500D01*
X128430909Y-67741500D01*
X128568891Y-67741500D01*
X128568893Y-67741500D01*
X128704228Y-67714580D01*
X128831711Y-67661775D01*
X128946442Y-67585114D01*
X128980769Y-67550786D01*
X128988900Y-67547419D01*
X128997032Y-67550787D01*
X129000400Y-67558919D01*
X129000400Y-67918526D01*
X128997032Y-67926658D01*
X128818558Y-68105132D01*
X128810426Y-68108500D01*
X127656484Y-68108500D01*
X127626156Y-68114532D01*
X127472854Y-68145025D01*
X127472849Y-68145026D01*
X127442434Y-68157625D01*
X127438033Y-68158500D01*
X127230352Y-68158500D01*
X127207088Y-68163127D01*
X127171871Y-68170132D01*
X127171867Y-68170134D01*
X127105549Y-68214446D01*
X127105546Y-68214449D01*
X127061234Y-68280767D01*
X127061232Y-68280771D01*
X127049600Y-68339253D01*
X127049600Y-68410526D01*
X127046232Y-68418658D01*
X127011795Y-68453095D01*
X126907779Y-68608766D01*
X126836126Y-68781749D01*
X126836125Y-68781754D01*
X126799600Y-68965384D01*
X126799600Y-69152615D01*
X126836125Y-69336245D01*
X126836126Y-69336250D01*
X126907779Y-69509233D01*
X126929237Y-69541347D01*
X127011798Y-69664908D01*
X127046232Y-69699342D01*
X127049600Y-69707473D01*
X127049600Y-69778748D01*
X127061233Y-69837231D01*
X127061234Y-69837232D01*
X127105546Y-69903550D01*
X127105548Y-69903552D01*
X127171869Y-69947867D01*
X127230352Y-69959500D01*
X127438033Y-69959500D01*
X127442434Y-69960375D01*
X127472849Y-69972973D01*
X127656484Y-70009500D01*
X127656485Y-70009500D01*
X129343515Y-70009500D01*
X129343516Y-70009500D01*
X129527151Y-69972973D01*
X129557566Y-69960375D01*
X129561967Y-69959500D01*
X129769646Y-69959500D01*
X129769648Y-69959500D01*
X129828131Y-69947867D01*
X129894452Y-69903552D01*
X129938767Y-69837231D01*
X129950400Y-69778748D01*
X129950400Y-69707473D01*
X129953767Y-69699342D01*
X129988202Y-69664908D01*
X130070135Y-69542283D01*
X130071556Y-69540552D01*
X130689202Y-68922908D01*
X130793223Y-68767230D01*
X130858859Y-68608769D01*
X130864873Y-68594251D01*
X130901400Y-68410616D01*
X130901400Y-67444057D01*
X130904768Y-67435925D01*
X130912900Y-67432557D01*
X130921032Y-67435925D01*
X130922459Y-67437664D01*
X130955786Y-67487542D01*
X131053358Y-67585114D01*
X131168089Y-67661775D01*
X131295572Y-67714580D01*
X131430907Y-67741500D01*
X131430909Y-67741500D01*
X131568891Y-67741500D01*
X131568893Y-67741500D01*
X131704228Y-67714580D01*
X131831711Y-67661775D01*
X131946442Y-67585114D01*
X132044014Y-67487542D01*
X132120675Y-67372811D01*
X132173480Y-67245328D01*
X132200400Y-67109993D01*
X132200400Y-66972007D01*
X132196122Y-66950500D01*
X132187681Y-66908062D01*
X132187347Y-66906384D01*
X135049500Y-66906384D01*
X135049500Y-71906383D01*
X135049500Y-72093617D01*
X135050770Y-72100000D01*
X135086026Y-72277246D01*
X135086026Y-72277249D01*
X135100202Y-72311473D01*
X135157677Y-72450230D01*
X135261698Y-72605908D01*
X135919132Y-73263342D01*
X135922500Y-73271473D01*
X135922500Y-74518715D01*
X135919132Y-74526847D01*
X135817527Y-74628451D01*
X135729521Y-74774032D01*
X135678914Y-74936437D01*
X135678913Y-74936443D01*
X135672500Y-75007024D01*
X135672500Y-76870247D01*
X135678913Y-76940828D01*
X135678914Y-76940834D01*
X135729521Y-77103239D01*
X135729522Y-77103242D01*
X135817528Y-77248821D01*
X135937815Y-77369108D01*
X136083394Y-77457114D01*
X136245804Y-77507722D01*
X136316384Y-77514136D01*
X136316393Y-77514136D01*
X137429607Y-77514136D01*
X137429616Y-77514136D01*
X137500196Y-77507722D01*
X137662606Y-77457114D01*
X137808185Y-77369108D01*
X137928472Y-77248821D01*
X138016478Y-77103242D01*
X138067086Y-76940832D01*
X138073500Y-76870252D01*
X138073500Y-75007020D01*
X138067086Y-74936440D01*
X138016478Y-74774030D01*
X137928472Y-74628451D01*
X137826868Y-74526847D01*
X137823500Y-74518715D01*
X137823500Y-72779383D01*
X137786974Y-72595754D01*
X137786973Y-72595749D01*
X137715322Y-72422769D01*
X137611302Y-72267092D01*
X137478908Y-72134698D01*
X136953868Y-71609658D01*
X136950500Y-71601526D01*
X136950500Y-67951459D01*
X137249500Y-67951459D01*
X137249500Y-68548541D01*
X137258593Y-68594255D01*
X137287948Y-68741831D01*
X137287948Y-68741834D01*
X137298625Y-68767608D01*
X137299500Y-68772009D01*
X137299500Y-70843615D01*
X137332953Y-71011799D01*
X137336026Y-71027246D01*
X137336026Y-71027249D01*
X137360373Y-71086027D01*
X137404679Y-71192993D01*
X137407678Y-71200232D01*
X137479023Y-71307007D01*
X137511698Y-71355908D01*
X138459132Y-72303342D01*
X138462500Y-72311473D01*
X138462500Y-74518715D01*
X138459132Y-74526847D01*
X138357527Y-74628451D01*
X138269521Y-74774032D01*
X138218914Y-74936437D01*
X138218913Y-74936443D01*
X138212500Y-75007024D01*
X138212500Y-76870247D01*
X138218913Y-76940828D01*
X138218914Y-76940834D01*
X138269521Y-77103239D01*
X138269522Y-77103242D01*
X138357528Y-77248821D01*
X138477815Y-77369108D01*
X138623394Y-77457114D01*
X138785804Y-77507722D01*
X138856384Y-77514136D01*
X138856393Y-77514136D01*
X139969607Y-77514136D01*
X139969616Y-77514136D01*
X140040196Y-77507722D01*
X140202606Y-77457114D01*
X140348185Y-77369108D01*
X140468472Y-77248821D01*
X140556478Y-77103242D01*
X140607086Y-76940832D01*
X140613500Y-76870252D01*
X140613500Y-75007024D01*
X140752500Y-75007024D01*
X140752500Y-76870247D01*
X140758913Y-76940828D01*
X140758914Y-76940834D01*
X140809521Y-77103239D01*
X140809522Y-77103242D01*
X140897528Y-77248821D01*
X141017815Y-77369108D01*
X141163394Y-77457114D01*
X141325804Y-77507722D01*
X141396384Y-77514136D01*
X141396393Y-77514136D01*
X142509607Y-77514136D01*
X142509616Y-77514136D01*
X142580196Y-77507722D01*
X142742606Y-77457114D01*
X142888185Y-77369108D01*
X143008472Y-77248821D01*
X143096478Y-77103242D01*
X143147086Y-76940832D01*
X143153500Y-76870252D01*
X143153500Y-75007024D01*
X143292500Y-75007024D01*
X143292500Y-76870247D01*
X143298913Y-76940828D01*
X143298914Y-76940834D01*
X143349521Y-77103239D01*
X143349522Y-77103242D01*
X143437528Y-77248821D01*
X143557815Y-77369108D01*
X143703394Y-77457114D01*
X143865804Y-77507722D01*
X143936384Y-77514136D01*
X143936393Y-77514136D01*
X145049607Y-77514136D01*
X145049616Y-77514136D01*
X145120196Y-77507722D01*
X145282606Y-77457114D01*
X145428185Y-77369108D01*
X145548472Y-77248821D01*
X145636478Y-77103242D01*
X145687086Y-76940832D01*
X145693500Y-76870252D01*
X145693500Y-75007024D01*
X145832500Y-75007024D01*
X145832500Y-76870247D01*
X145838913Y-76940828D01*
X145838914Y-76940834D01*
X145889521Y-77103239D01*
X145889522Y-77103242D01*
X145977528Y-77248821D01*
X146097815Y-77369108D01*
X146243394Y-77457114D01*
X146405804Y-77507722D01*
X146476384Y-77514136D01*
X146476393Y-77514136D01*
X147589607Y-77514136D01*
X147589616Y-77514136D01*
X147660196Y-77507722D01*
X147822606Y-77457114D01*
X147968185Y-77369108D01*
X148088472Y-77248821D01*
X148176478Y-77103242D01*
X148227086Y-76940832D01*
X148233500Y-76870252D01*
X148233500Y-75007024D01*
X148372500Y-75007024D01*
X148372500Y-76870247D01*
X148378913Y-76940828D01*
X148378914Y-76940834D01*
X148429521Y-77103239D01*
X148429522Y-77103242D01*
X148517528Y-77248821D01*
X148637815Y-77369108D01*
X148783394Y-77457114D01*
X148945804Y-77507722D01*
X149016384Y-77514136D01*
X149016393Y-77514136D01*
X150129607Y-77514136D01*
X150129616Y-77514136D01*
X150200196Y-77507722D01*
X150362606Y-77457114D01*
X150508185Y-77369108D01*
X150628472Y-77248821D01*
X150716478Y-77103242D01*
X150767086Y-76940832D01*
X150773500Y-76870252D01*
X150773500Y-75007020D01*
X150767086Y-74936440D01*
X150716478Y-74774030D01*
X150628472Y-74628451D01*
X150508185Y-74508164D01*
X150508184Y-74508163D01*
X150460564Y-74479376D01*
X150362606Y-74420158D01*
X150362603Y-74420157D01*
X150362604Y-74420157D01*
X150200198Y-74369550D01*
X150200192Y-74369549D01*
X150159009Y-74365807D01*
X150129616Y-74363136D01*
X149016384Y-74363136D01*
X148992868Y-74365272D01*
X148945807Y-74369549D01*
X148945801Y-74369550D01*
X148783396Y-74420157D01*
X148637815Y-74508163D01*
X148517527Y-74628451D01*
X148429521Y-74774032D01*
X148378914Y-74936437D01*
X148378913Y-74936443D01*
X148372500Y-75007024D01*
X148233500Y-75007024D01*
X148233500Y-75007020D01*
X148227086Y-74936440D01*
X148176478Y-74774030D01*
X148088472Y-74628451D01*
X147968185Y-74508164D01*
X147968184Y-74508163D01*
X147920564Y-74479376D01*
X147822606Y-74420158D01*
X147822603Y-74420157D01*
X147822604Y-74420157D01*
X147660198Y-74369550D01*
X147660192Y-74369549D01*
X147619009Y-74365807D01*
X147589616Y-74363136D01*
X146476384Y-74363136D01*
X146452868Y-74365272D01*
X146405807Y-74369549D01*
X146405801Y-74369550D01*
X146243396Y-74420157D01*
X146097815Y-74508163D01*
X145977527Y-74628451D01*
X145889521Y-74774032D01*
X145838914Y-74936437D01*
X145838913Y-74936443D01*
X145832500Y-75007024D01*
X145693500Y-75007024D01*
X145693500Y-75007020D01*
X145687086Y-74936440D01*
X145636478Y-74774030D01*
X145548472Y-74628451D01*
X145428185Y-74508164D01*
X145428184Y-74508163D01*
X145380564Y-74479376D01*
X145282606Y-74420158D01*
X145282603Y-74420157D01*
X145282604Y-74420157D01*
X145120198Y-74369550D01*
X145120192Y-74369549D01*
X145079009Y-74365807D01*
X145049616Y-74363136D01*
X143936384Y-74363136D01*
X143912868Y-74365272D01*
X143865807Y-74369549D01*
X143865801Y-74369550D01*
X143703396Y-74420157D01*
X143557815Y-74508163D01*
X143437527Y-74628451D01*
X143349521Y-74774032D01*
X143298914Y-74936437D01*
X143298913Y-74936443D01*
X143292500Y-75007024D01*
X143153500Y-75007024D01*
X143153500Y-75007020D01*
X143147086Y-74936440D01*
X143096478Y-74774030D01*
X143008472Y-74628451D01*
X142888185Y-74508164D01*
X142888184Y-74508163D01*
X142840564Y-74479376D01*
X142742606Y-74420158D01*
X142742603Y-74420157D01*
X142742604Y-74420157D01*
X142580198Y-74369550D01*
X142580192Y-74369549D01*
X142539009Y-74365807D01*
X142509616Y-74363136D01*
X141396384Y-74363136D01*
X141372868Y-74365272D01*
X141325807Y-74369549D01*
X141325801Y-74369550D01*
X141163396Y-74420157D01*
X141017815Y-74508163D01*
X140897527Y-74628451D01*
X140809521Y-74774032D01*
X140758914Y-74936437D01*
X140758913Y-74936443D01*
X140752500Y-75007024D01*
X140613500Y-75007024D01*
X140613500Y-75007020D01*
X140607086Y-74936440D01*
X140556478Y-74774030D01*
X140468472Y-74628451D01*
X140366868Y-74526847D01*
X140363500Y-74518715D01*
X140363500Y-71819384D01*
X140326974Y-71635754D01*
X140326973Y-71635749D01*
X140316166Y-71609658D01*
X140255322Y-71462769D01*
X140151302Y-71307092D01*
X140018908Y-71174698D01*
X139203868Y-70359658D01*
X139200500Y-70351526D01*
X139200500Y-68772009D01*
X139201375Y-68767608D01*
X139212051Y-68741834D01*
X139250500Y-68548541D01*
X139250500Y-67951459D01*
X139212051Y-67758165D01*
X139136632Y-67576086D01*
X139027139Y-67412218D01*
X138887782Y-67272861D01*
X138846576Y-67245328D01*
X138723916Y-67163369D01*
X138541833Y-67087948D01*
X138425437Y-67064795D01*
X138348541Y-67049500D01*
X138151459Y-67049500D01*
X138062245Y-67067246D01*
X137958168Y-67087948D01*
X137958165Y-67087948D01*
X137776083Y-67163369D01*
X137612221Y-67272858D01*
X137472858Y-67412221D01*
X137363369Y-67576083D01*
X137287948Y-67758165D01*
X137287948Y-67758168D01*
X137249500Y-67951459D01*
X136950500Y-67951459D01*
X136950500Y-67398474D01*
X136953868Y-67390342D01*
X137390342Y-66953868D01*
X137398474Y-66950500D01*
X139101526Y-66950500D01*
X139109658Y-66953868D01*
X139836132Y-67680342D01*
X139839500Y-67688474D01*
X139839500Y-67727989D01*
X139838625Y-67732390D01*
X139827948Y-67758165D01*
X139827948Y-67758168D01*
X139789500Y-67951459D01*
X139789500Y-68548541D01*
X139798593Y-68594255D01*
X139827948Y-68741831D01*
X139827948Y-68741834D01*
X139903369Y-68923916D01*
X140012858Y-69087778D01*
X140012861Y-69087782D01*
X140152218Y-69227139D01*
X140316086Y-69336632D01*
X140498165Y-69412051D01*
X140691459Y-69450500D01*
X140691461Y-69450500D01*
X140888539Y-69450500D01*
X140888541Y-69450500D01*
X141081835Y-69412051D01*
X141263914Y-69336632D01*
X141427782Y-69227139D01*
X141567139Y-69087782D01*
X141676632Y-68923914D01*
X141752051Y-68741835D01*
X141790500Y-68548541D01*
X141790500Y-67951459D01*
X142329500Y-67951459D01*
X142329500Y-68548541D01*
X142338593Y-68594255D01*
X142367948Y-68741831D01*
X142367948Y-68741834D01*
X142378625Y-68767608D01*
X142379500Y-68772009D01*
X142379500Y-69736383D01*
X142379500Y-69923617D01*
X142384324Y-69947867D01*
X142416026Y-70107246D01*
X142416026Y-70107249D01*
X142487678Y-70280232D01*
X142540749Y-70359658D01*
X142591698Y-70435908D01*
X144761698Y-72605908D01*
X144894092Y-72738302D01*
X144955574Y-72779383D01*
X145049769Y-72842322D01*
X145222749Y-72913973D01*
X145406383Y-72950500D01*
X145406384Y-72950500D01*
X150101526Y-72950500D01*
X150109658Y-72953868D01*
X152046132Y-74890342D01*
X152049500Y-74898474D01*
X152049500Y-92601526D01*
X152046132Y-92609658D01*
X150109658Y-94546132D01*
X150101526Y-94549500D01*
X146398474Y-94549500D01*
X146390342Y-94546132D01*
X145446868Y-93602658D01*
X145443500Y-93594526D01*
X145443500Y-93523557D01*
X145446868Y-93515425D01*
X145504760Y-93457533D01*
X146386208Y-93457533D01*
X146425625Y-93472234D01*
X146485171Y-93478636D01*
X147580829Y-93478636D01*
X147640374Y-93472234D01*
X147679789Y-93457532D01*
X147659378Y-93437121D01*
X147734513Y-93437121D01*
X147734513Y-93437122D01*
X147775085Y-93421990D01*
X147775088Y-93421989D01*
X147890186Y-93335826D01*
X147890190Y-93335822D01*
X147976353Y-93220724D01*
X147976354Y-93220721D01*
X147991486Y-93180149D01*
X147991485Y-93180149D01*
X147734513Y-93437121D01*
X147659378Y-93437121D01*
X147032999Y-92810742D01*
X146386208Y-93457533D01*
X145504760Y-93457533D01*
X145516583Y-93445710D01*
X145529540Y-93432753D01*
X145548472Y-93413821D01*
X145636478Y-93268242D01*
X145658859Y-93196415D01*
X145663928Y-93180149D01*
X146074513Y-93180149D01*
X146089647Y-93220724D01*
X146089649Y-93220727D01*
X146175809Y-93335822D01*
X146175813Y-93335826D01*
X146290912Y-93421989D01*
X146331484Y-93437120D01*
X146074513Y-93180149D01*
X145663928Y-93180149D01*
X145666448Y-93172064D01*
X145687085Y-93105834D01*
X145687086Y-93105832D01*
X145693500Y-93035252D01*
X145693500Y-92396528D01*
X146033000Y-92396528D01*
X146325893Y-92103636D01*
X147740107Y-92103636D01*
X148033000Y-92396529D01*
X148033000Y-91810743D01*
X147740107Y-92103636D01*
X146325893Y-92103636D01*
X146033000Y-91810743D01*
X146033000Y-92396528D01*
X145693500Y-92396528D01*
X145693500Y-91172020D01*
X145687086Y-91101440D01*
X145663928Y-91027122D01*
X146074512Y-91027122D01*
X146331486Y-90770148D01*
X146290910Y-90785283D01*
X146175813Y-90871445D01*
X146175809Y-90871449D01*
X146089647Y-90986546D01*
X146074512Y-91027122D01*
X145663928Y-91027122D01*
X145636478Y-90939030D01*
X145548472Y-90793451D01*
X145504758Y-90749737D01*
X146386208Y-90749737D01*
X147033000Y-91396529D01*
X147257505Y-91172024D01*
X148372500Y-91172024D01*
X148372500Y-93035247D01*
X148378913Y-93105828D01*
X148378914Y-93105834D01*
X148414714Y-93220721D01*
X148429522Y-93268242D01*
X148470376Y-93335822D01*
X148508870Y-93399500D01*
X148517528Y-93413821D01*
X148637815Y-93534108D01*
X148783394Y-93622114D01*
X148945804Y-93672722D01*
X149016384Y-93679136D01*
X149016393Y-93679136D01*
X150129607Y-93679136D01*
X150129616Y-93679136D01*
X150200196Y-93672722D01*
X150362606Y-93622114D01*
X150508185Y-93534108D01*
X150628472Y-93413821D01*
X150716478Y-93268242D01*
X150767086Y-93105832D01*
X150773500Y-93035252D01*
X150773500Y-91172020D01*
X150767086Y-91101440D01*
X150716478Y-90939030D01*
X150628472Y-90793451D01*
X150508185Y-90673164D01*
X150508184Y-90673163D01*
X150460564Y-90644376D01*
X150362606Y-90585158D01*
X150362603Y-90585157D01*
X150362604Y-90585157D01*
X150200198Y-90534550D01*
X150200192Y-90534549D01*
X150159009Y-90530807D01*
X150129616Y-90528136D01*
X149016384Y-90528136D01*
X148992868Y-90530272D01*
X148945807Y-90534549D01*
X148945801Y-90534550D01*
X148783396Y-90585157D01*
X148637815Y-90673163D01*
X148517527Y-90793451D01*
X148429521Y-90939032D01*
X148378914Y-91101437D01*
X148378913Y-91101443D01*
X148372500Y-91172024D01*
X147257505Y-91172024D01*
X147265902Y-91163627D01*
X147659379Y-90770149D01*
X147734513Y-90770149D01*
X147991485Y-91027121D01*
X147976353Y-90986548D01*
X147976353Y-90986547D01*
X147890190Y-90871449D01*
X147890186Y-90871445D01*
X147775091Y-90785285D01*
X147775088Y-90785283D01*
X147734513Y-90770149D01*
X147659379Y-90770149D01*
X147665932Y-90763596D01*
X147679790Y-90749737D01*
X147640378Y-90735039D01*
X147640374Y-90735037D01*
X147580829Y-90728636D01*
X146485171Y-90728636D01*
X146425625Y-90735037D01*
X146425621Y-90735039D01*
X146386208Y-90749737D01*
X145504758Y-90749737D01*
X145428185Y-90673164D01*
X145428184Y-90673163D01*
X145380564Y-90644376D01*
X145282606Y-90585158D01*
X145282603Y-90585157D01*
X145282604Y-90585157D01*
X145120198Y-90534550D01*
X145120192Y-90534549D01*
X145079009Y-90530807D01*
X145049616Y-90528136D01*
X143936384Y-90528136D01*
X143912868Y-90530272D01*
X143865807Y-90534549D01*
X143865801Y-90534550D01*
X143703396Y-90585157D01*
X143557815Y-90673163D01*
X143437527Y-90793451D01*
X143349521Y-90939032D01*
X143298914Y-91101437D01*
X143298913Y-91101443D01*
X143292500Y-91172024D01*
X143292500Y-93035247D01*
X143298913Y-93105828D01*
X143298914Y-93105834D01*
X143334714Y-93220721D01*
X143349522Y-93268242D01*
X143390376Y-93335822D01*
X143437527Y-93413820D01*
X143539132Y-93515425D01*
X143542500Y-93523557D01*
X143542500Y-94086615D01*
X143579025Y-94270245D01*
X143579028Y-94270255D01*
X143581752Y-94276829D01*
X143581752Y-94276831D01*
X143581753Y-94276831D01*
X143650678Y-94443232D01*
X143754695Y-94598904D01*
X143754698Y-94598908D01*
X145394092Y-96238302D01*
X145549770Y-96342323D01*
X145651099Y-96384294D01*
X145722749Y-96413973D01*
X145814566Y-96432236D01*
X145906383Y-96450500D01*
X145906384Y-96450500D01*
X145906385Y-96450500D01*
X150593615Y-96450500D01*
X150593617Y-96450500D01*
X150685433Y-96432236D01*
X150777251Y-96413973D01*
X150848901Y-96384294D01*
X150950230Y-96342323D01*
X151105908Y-96238302D01*
X152700500Y-94643710D01*
X160149500Y-94643710D01*
X160149500Y-94856289D01*
X160182753Y-95066240D01*
X160248441Y-95268408D01*
X160248442Y-95268411D01*
X160248443Y-95268412D01*
X160344949Y-95457816D01*
X160469896Y-95629792D01*
X160620208Y-95780104D01*
X160792184Y-95905051D01*
X160981588Y-96001557D01*
X161183757Y-96067246D01*
X161288735Y-96083873D01*
X161393711Y-96100500D01*
X161393713Y-96100500D01*
X161606289Y-96100500D01*
X161690269Y-96087198D01*
X161816243Y-96067246D01*
X162018412Y-96001557D01*
X162207816Y-95905051D01*
X162379792Y-95780104D01*
X162530104Y-95629792D01*
X162655051Y-95457816D01*
X162751557Y-95268412D01*
X162817246Y-95066243D01*
X162850500Y-94856287D01*
X162850500Y-94643713D01*
X162849140Y-94635129D01*
X162830547Y-94517739D01*
X162817246Y-94433757D01*
X162751557Y-94231588D01*
X162655051Y-94042184D01*
X162530104Y-93870208D01*
X162379792Y-93719896D01*
X162207816Y-93594949D01*
X162018412Y-93498443D01*
X162018411Y-93498442D01*
X162018408Y-93498441D01*
X161816240Y-93432753D01*
X161606289Y-93399500D01*
X161606287Y-93399500D01*
X161393713Y-93399500D01*
X161393711Y-93399500D01*
X161183759Y-93432753D01*
X160981591Y-93498441D01*
X160909085Y-93535385D01*
X160792184Y-93594949D01*
X160792181Y-93594950D01*
X160792179Y-93594952D01*
X160620211Y-93719893D01*
X160469893Y-93870211D01*
X160344952Y-94042179D01*
X160344950Y-94042181D01*
X160344949Y-94042184D01*
X160322310Y-94086616D01*
X160248441Y-94231591D01*
X160182753Y-94433759D01*
X160149500Y-94643710D01*
X152700500Y-94643710D01*
X153738302Y-93605908D01*
X153842323Y-93450230D01*
X153913973Y-93277250D01*
X153950500Y-93093617D01*
X153950500Y-92906383D01*
X153950500Y-74406384D01*
X153913973Y-74222749D01*
X153860485Y-74093617D01*
X153842323Y-74049770D01*
X153738302Y-73894092D01*
X151694211Y-71850001D01*
X154425000Y-71850001D01*
X154425000Y-72099999D01*
X154425001Y-72100000D01*
X155624999Y-72100000D01*
X155625000Y-72099999D01*
X155625000Y-71850001D01*
X156625000Y-71850001D01*
X156625000Y-72099999D01*
X156625001Y-72100000D01*
X157824999Y-72100000D01*
X157825000Y-72099999D01*
X157825000Y-71850001D01*
X157824999Y-71850000D01*
X156625001Y-71850000D01*
X156625000Y-71850001D01*
X155625000Y-71850001D01*
X155624999Y-71850000D01*
X154425001Y-71850000D01*
X154425000Y-71850001D01*
X151694211Y-71850001D01*
X151105908Y-71261698D01*
X150975704Y-71174698D01*
X150950232Y-71157678D01*
X150848901Y-71115705D01*
X150777249Y-71086026D01*
X150685433Y-71067763D01*
X150685433Y-71067762D01*
X150608849Y-71052529D01*
X150593617Y-71049500D01*
X150593616Y-71049500D01*
X145898474Y-71049500D01*
X145890342Y-71046132D01*
X145444211Y-70600001D01*
X154425000Y-70600001D01*
X154425000Y-70849999D01*
X154425001Y-70850000D01*
X155624999Y-70850000D01*
X155625000Y-70849999D01*
X155625000Y-70600001D01*
X156625000Y-70600001D01*
X156625000Y-70849999D01*
X156625001Y-70850000D01*
X157824999Y-70850000D01*
X157825000Y-70849999D01*
X157825000Y-70600001D01*
X157824999Y-70600000D01*
X156625001Y-70600000D01*
X156625000Y-70600001D01*
X155625000Y-70600001D01*
X155624999Y-70600000D01*
X154425001Y-70600000D01*
X154425000Y-70600001D01*
X145444211Y-70600001D01*
X144283868Y-69439658D01*
X144280500Y-69431526D01*
X144280500Y-68772009D01*
X144281375Y-68767608D01*
X144288669Y-68750000D01*
X145128350Y-68750000D01*
X145161050Y-68828944D01*
X145248596Y-68959966D01*
X145360031Y-69071401D01*
X145370000Y-69078061D01*
X145370000Y-68750001D01*
X146370000Y-68750001D01*
X146370000Y-69078061D01*
X146379968Y-69071401D01*
X146491403Y-68959966D01*
X146578949Y-68828944D01*
X146611650Y-68750000D01*
X146370001Y-68750000D01*
X146370000Y-68750001D01*
X145370000Y-68750001D01*
X145369999Y-68750000D01*
X145128350Y-68750000D01*
X144288669Y-68750000D01*
X144291021Y-68744321D01*
X144292051Y-68741834D01*
X144330500Y-68548541D01*
X144330500Y-68184174D01*
X145370000Y-68184174D01*
X145370000Y-68315826D01*
X145404075Y-68442993D01*
X145469901Y-68557007D01*
X145562993Y-68650099D01*
X145677007Y-68715925D01*
X145804174Y-68750000D01*
X145935826Y-68750000D01*
X146062993Y-68715925D01*
X146177007Y-68650099D01*
X146270099Y-68557007D01*
X146335925Y-68442993D01*
X146370000Y-68315826D01*
X146370000Y-68184174D01*
X146335925Y-68057007D01*
X146270099Y-67942993D01*
X146177007Y-67849901D01*
X146062993Y-67784075D01*
X145935826Y-67750000D01*
X145804174Y-67750000D01*
X145677007Y-67784075D01*
X145562993Y-67849901D01*
X145469901Y-67942993D01*
X145404075Y-68057007D01*
X145370000Y-68184174D01*
X144330500Y-68184174D01*
X144330500Y-67951459D01*
X144292051Y-67758165D01*
X144288669Y-67750000D01*
X145128350Y-67750000D01*
X145369999Y-67750000D01*
X145370000Y-67749999D01*
X146370000Y-67749999D01*
X146370001Y-67750000D01*
X146611649Y-67750000D01*
X146578949Y-67671055D01*
X146491403Y-67540033D01*
X146379966Y-67428596D01*
X146370000Y-67421937D01*
X146370000Y-67749999D01*
X145370000Y-67749999D01*
X145370000Y-67421937D01*
X145360033Y-67428596D01*
X145248596Y-67540033D01*
X145161050Y-67671055D01*
X145128350Y-67750000D01*
X144288669Y-67750000D01*
X144216632Y-67576086D01*
X144107139Y-67412218D01*
X143967782Y-67272861D01*
X143926576Y-67245328D01*
X143803916Y-67163369D01*
X143621833Y-67087948D01*
X143505437Y-67064795D01*
X143428541Y-67049500D01*
X143231459Y-67049500D01*
X143142245Y-67067246D01*
X143038168Y-67087948D01*
X143038165Y-67087948D01*
X142856083Y-67163369D01*
X142692221Y-67272858D01*
X142552858Y-67412221D01*
X142443369Y-67576083D01*
X142367948Y-67758165D01*
X142367948Y-67758168D01*
X142329500Y-67951459D01*
X141790500Y-67951459D01*
X141752051Y-67758165D01*
X141745148Y-67741500D01*
X141741375Y-67732390D01*
X141740500Y-67727989D01*
X141740500Y-67196384D01*
X141703974Y-67012754D01*
X141703973Y-67012749D01*
X141632322Y-66839769D01*
X141528302Y-66684092D01*
X141395908Y-66551698D01*
X140105908Y-65261698D01*
X140060850Y-65231591D01*
X139950232Y-65157678D01*
X139939829Y-65153369D01*
X139848901Y-65115705D01*
X139777251Y-65086027D01*
X139777249Y-65086026D01*
X139685433Y-65067763D01*
X139685433Y-65067762D01*
X139608849Y-65052529D01*
X139593617Y-65049500D01*
X139593616Y-65049500D01*
X136906384Y-65049500D01*
X136876056Y-65055532D01*
X136722754Y-65086025D01*
X136722749Y-65086026D01*
X136651099Y-65115705D01*
X136549767Y-65157678D01*
X136394095Y-65261695D01*
X135261695Y-66394095D01*
X135157678Y-66549767D01*
X135139167Y-66594458D01*
X135086026Y-66722749D01*
X135086025Y-66722754D01*
X135062751Y-66839766D01*
X135049500Y-66906384D01*
X132187347Y-66906384D01*
X132180912Y-66874039D01*
X132173480Y-66836672D01*
X132120675Y-66709189D01*
X132044014Y-66594458D01*
X131946442Y-66496886D01*
X131946438Y-66496883D01*
X131831713Y-66420226D01*
X131704226Y-66367419D01*
X131619598Y-66350586D01*
X131568893Y-66340500D01*
X131430907Y-66340500D01*
X131408346Y-66344987D01*
X131371567Y-66352303D01*
X131362935Y-66350586D01*
X131358045Y-66343267D01*
X131359762Y-66334635D01*
X131361187Y-66332897D01*
X132740218Y-64953868D01*
X132748350Y-64950500D01*
X145101526Y-64950500D01*
X145109658Y-64953868D01*
X147894092Y-67738302D01*
X148049770Y-67842323D01*
X148151099Y-67884294D01*
X148222749Y-67913973D01*
X148406384Y-67950500D01*
X148406385Y-67950500D01*
X150468615Y-67950500D01*
X150468616Y-67950500D01*
X150652251Y-67913973D01*
X150825231Y-67842322D01*
X150980908Y-67738302D01*
X151015342Y-67703868D01*
X151023474Y-67700500D01*
X152144746Y-67700500D01*
X152144748Y-67700500D01*
X152203231Y-67688867D01*
X152269552Y-67644552D01*
X152313867Y-67578231D01*
X152325500Y-67519748D01*
X152325500Y-66480252D01*
X152313867Y-66421769D01*
X152277551Y-66367419D01*
X152269553Y-66355449D01*
X152269550Y-66355446D01*
X152203232Y-66311134D01*
X152203233Y-66311134D01*
X152203231Y-66311133D01*
X152203229Y-66311132D01*
X152203228Y-66311132D01*
X152173788Y-66305276D01*
X152144748Y-66299500D01*
X152144746Y-66299500D01*
X151023474Y-66299500D01*
X151015342Y-66296132D01*
X150980908Y-66261698D01*
X150980904Y-66261695D01*
X150825233Y-66157679D01*
X150652250Y-66086026D01*
X150652245Y-66086025D01*
X150504943Y-66056725D01*
X150468616Y-66049500D01*
X150468615Y-66049500D01*
X148898474Y-66049500D01*
X148890342Y-66046132D01*
X148487920Y-65643710D01*
X160149500Y-65643710D01*
X160149500Y-65856289D01*
X160182753Y-66066240D01*
X160248441Y-66268408D01*
X160248442Y-66268411D01*
X160248443Y-66268412D01*
X160344949Y-66457816D01*
X160344952Y-66457820D01*
X160444224Y-66594458D01*
X160469896Y-66629792D01*
X160620208Y-66780104D01*
X160792184Y-66905051D01*
X160981588Y-67001557D01*
X161183757Y-67067246D01*
X161288735Y-67083873D01*
X161393711Y-67100500D01*
X161393713Y-67100500D01*
X161606289Y-67100500D01*
X161690269Y-67087198D01*
X161816243Y-67067246D01*
X162018412Y-67001557D01*
X162207816Y-66905051D01*
X162379792Y-66780104D01*
X162530104Y-66629792D01*
X162655051Y-66457816D01*
X162751557Y-66268412D01*
X162817246Y-66066243D01*
X162850500Y-65856287D01*
X162850500Y-65643713D01*
X162817246Y-65433757D01*
X162751557Y-65231588D01*
X162655051Y-65042184D01*
X162530104Y-64870208D01*
X162379792Y-64719896D01*
X162207816Y-64594949D01*
X162018412Y-64498443D01*
X162018411Y-64498442D01*
X162018408Y-64498441D01*
X161816240Y-64432753D01*
X161606289Y-64399500D01*
X161606287Y-64399500D01*
X161393713Y-64399500D01*
X161393711Y-64399500D01*
X161183759Y-64432753D01*
X160981591Y-64498441D01*
X160884932Y-64547691D01*
X160792184Y-64594949D01*
X160792181Y-64594950D01*
X160792179Y-64594952D01*
X160620211Y-64719893D01*
X160469893Y-64870211D01*
X160344952Y-65042179D01*
X160344950Y-65042181D01*
X160344949Y-65042184D01*
X160322610Y-65086027D01*
X160248441Y-65231591D01*
X160182753Y-65433759D01*
X160149500Y-65643710D01*
X148487920Y-65643710D01*
X147997579Y-65153369D01*
X147994211Y-65150001D01*
X154425000Y-65150001D01*
X154425000Y-65399999D01*
X154425001Y-65400000D01*
X155624999Y-65400000D01*
X155625000Y-65399999D01*
X155625000Y-65150001D01*
X156625000Y-65150001D01*
X156625000Y-65399999D01*
X156625001Y-65400000D01*
X157824999Y-65400000D01*
X157825000Y-65399999D01*
X157825000Y-65150001D01*
X157824999Y-65150000D01*
X156625001Y-65150000D01*
X156625000Y-65150001D01*
X155625000Y-65150001D01*
X155624999Y-65150000D01*
X154425001Y-65150000D01*
X154425000Y-65150001D01*
X147994211Y-65150001D01*
X147439159Y-64594949D01*
X146744211Y-63900001D01*
X154425000Y-63900001D01*
X154425000Y-64149999D01*
X154425001Y-64150000D01*
X155624999Y-64150000D01*
X155625000Y-64149999D01*
X155625000Y-63900001D01*
X156625000Y-63900001D01*
X156625000Y-64149999D01*
X156625001Y-64150000D01*
X157824999Y-64150000D01*
X157825000Y-64149999D01*
X157825000Y-63900001D01*
X157824999Y-63900000D01*
X156625001Y-63900000D01*
X156625000Y-63900001D01*
X155625000Y-63900001D01*
X155624999Y-63900000D01*
X154425001Y-63900000D01*
X154425000Y-63900001D01*
X146744211Y-63900001D01*
X146105908Y-63261698D01*
X146105904Y-63261695D01*
X145950232Y-63157678D01*
X145848901Y-63115705D01*
X145777249Y-63086026D01*
X145713164Y-63073279D01*
X145705846Y-63068389D01*
X145704129Y-63059756D01*
X145709019Y-63052438D01*
X145715408Y-63050500D01*
X164188000Y-63050500D01*
X164196132Y-63053868D01*
X164199500Y-63062000D01*
X164199500Y-97438000D01*
X164196132Y-97446132D01*
X164188000Y-97449500D01*
X119812000Y-97449500D01*
X119803868Y-97446132D01*
X119800500Y-97438000D01*
X119800500Y-94643710D01*
X121149500Y-94643710D01*
X121149500Y-94856289D01*
X121182753Y-95066240D01*
X121248441Y-95268408D01*
X121248442Y-95268411D01*
X121248443Y-95268412D01*
X121344949Y-95457816D01*
X121469896Y-95629792D01*
X121620208Y-95780104D01*
X121792184Y-95905051D01*
X121981588Y-96001557D01*
X122183757Y-96067246D01*
X122288735Y-96083873D01*
X122393711Y-96100500D01*
X122393713Y-96100500D01*
X122606289Y-96100500D01*
X122690269Y-96087198D01*
X122816243Y-96067246D01*
X123018412Y-96001557D01*
X123207816Y-95905051D01*
X123379792Y-95780104D01*
X123530104Y-95629792D01*
X123655051Y-95457816D01*
X123751557Y-95268412D01*
X123817246Y-95066243D01*
X123850500Y-94856287D01*
X123850500Y-94643713D01*
X123849140Y-94635129D01*
X123830547Y-94517739D01*
X123817246Y-94433757D01*
X123751557Y-94231588D01*
X123655051Y-94042184D01*
X123530104Y-93870208D01*
X123379792Y-93719896D01*
X123207816Y-93594949D01*
X123018412Y-93498443D01*
X123018411Y-93498442D01*
X123018408Y-93498441D01*
X122816240Y-93432753D01*
X122606289Y-93399500D01*
X122606287Y-93399500D01*
X122393713Y-93399500D01*
X122393711Y-93399500D01*
X122183759Y-93432753D01*
X121981591Y-93498441D01*
X121909085Y-93535385D01*
X121792184Y-93594949D01*
X121792181Y-93594950D01*
X121792179Y-93594952D01*
X121620211Y-93719893D01*
X121469893Y-93870211D01*
X121344952Y-94042179D01*
X121344950Y-94042181D01*
X121344949Y-94042184D01*
X121322310Y-94086616D01*
X121248441Y-94231591D01*
X121182753Y-94433759D01*
X121149500Y-94643710D01*
X119800500Y-94643710D01*
X119800500Y-85250000D01*
X123957107Y-85250000D01*
X124042892Y-85250000D01*
X124000000Y-85207106D01*
X123957107Y-85250000D01*
X119800500Y-85250000D01*
X119800500Y-84542891D01*
X123250000Y-84542891D01*
X123292892Y-84499999D01*
X123250000Y-84457107D01*
X123250000Y-84542891D01*
X119800500Y-84542891D01*
X119800500Y-84434174D01*
X123500000Y-84434174D01*
X123500000Y-84565826D01*
X123534075Y-84692993D01*
X123599901Y-84807007D01*
X123692993Y-84900099D01*
X123807007Y-84965925D01*
X123934174Y-85000000D01*
X124065826Y-85000000D01*
X124192993Y-84965925D01*
X124307007Y-84900099D01*
X124400099Y-84807007D01*
X124465925Y-84692993D01*
X124500000Y-84565826D01*
X124500000Y-84500000D01*
X124707106Y-84500000D01*
X124750000Y-84542892D01*
X124750000Y-84457107D01*
X124707106Y-84500000D01*
X124500000Y-84500000D01*
X124500000Y-84434174D01*
X124465925Y-84307007D01*
X124400099Y-84192993D01*
X124307007Y-84099901D01*
X124192993Y-84034075D01*
X124065826Y-84000000D01*
X123934174Y-84000000D01*
X123807007Y-84034075D01*
X123692993Y-84099901D01*
X123599901Y-84192993D01*
X123534075Y-84307007D01*
X123500000Y-84434174D01*
X119800500Y-84434174D01*
X119800500Y-83750000D01*
X123957108Y-83750000D01*
X124000000Y-83792892D01*
X124042892Y-83750000D01*
X123957108Y-83750000D01*
X119800500Y-83750000D01*
X119800500Y-75230253D01*
X123049500Y-75230253D01*
X123049500Y-81093615D01*
X123086026Y-81277246D01*
X123086026Y-81277249D01*
X123157678Y-81450232D01*
X123232950Y-81562884D01*
X123261698Y-81605908D01*
X125395132Y-83739342D01*
X125398500Y-83747473D01*
X125398500Y-91026526D01*
X125395132Y-91034658D01*
X125387000Y-91038026D01*
X125378868Y-91034658D01*
X124953868Y-90609658D01*
X124950500Y-90601526D01*
X124950500Y-88730253D01*
X124938867Y-88671771D01*
X124938867Y-88671769D01*
X124894552Y-88605448D01*
X124894550Y-88605446D01*
X124828232Y-88561134D01*
X124828233Y-88561134D01*
X124828231Y-88561133D01*
X124828229Y-88561132D01*
X124828228Y-88561132D01*
X124798788Y-88555276D01*
X124769748Y-88549500D01*
X123230252Y-88549500D01*
X123206988Y-88554127D01*
X123171771Y-88561132D01*
X123171767Y-88561134D01*
X123105449Y-88605446D01*
X123105446Y-88605449D01*
X123061134Y-88671767D01*
X123061132Y-88671771D01*
X123052388Y-88715731D01*
X123049500Y-88730252D01*
X123049500Y-89406384D01*
X123049500Y-90906383D01*
X123049500Y-91093617D01*
X123065096Y-91172024D01*
X123086026Y-91277246D01*
X123086026Y-91277249D01*
X123141445Y-91411043D01*
X123157677Y-91450230D01*
X123261698Y-91605908D01*
X123909698Y-92253908D01*
X123909699Y-92253909D01*
X128462696Y-96806905D01*
X128462698Y-96806908D01*
X128595092Y-96939302D01*
X128750769Y-97043322D01*
X128923749Y-97114973D01*
X129107384Y-97151500D01*
X129107385Y-97151500D01*
X136649830Y-97151500D01*
X136649831Y-97151500D01*
X136833465Y-97114973D01*
X137006445Y-97043322D01*
X137162123Y-96939301D01*
X138290938Y-95810485D01*
X138315879Y-95785544D01*
X138315878Y-95785544D01*
X139312301Y-94789123D01*
X139312303Y-94789121D01*
X139326198Y-94768323D01*
X139327622Y-94766586D01*
X140151301Y-93942909D01*
X140160685Y-93928866D01*
X140255322Y-93787231D01*
X140326973Y-93614251D01*
X140341203Y-93542702D01*
X140346093Y-93535385D01*
X140346507Y-93535121D01*
X140348185Y-93534108D01*
X140468472Y-93413821D01*
X140556478Y-93268242D01*
X140607086Y-93105832D01*
X140613500Y-93035252D01*
X140613500Y-91172020D01*
X140607086Y-91101440D01*
X140556478Y-90939030D01*
X140468472Y-90793451D01*
X140348185Y-90673164D01*
X140348184Y-90673163D01*
X140300564Y-90644376D01*
X140202606Y-90585158D01*
X140202603Y-90585157D01*
X140202604Y-90585157D01*
X140040198Y-90534550D01*
X140040192Y-90534549D01*
X139999009Y-90530807D01*
X139969616Y-90528136D01*
X138856384Y-90528136D01*
X138832868Y-90530272D01*
X138785807Y-90534549D01*
X138785801Y-90534550D01*
X138623396Y-90585157D01*
X138477815Y-90673163D01*
X138357527Y-90793451D01*
X138269521Y-90939032D01*
X138218914Y-91101437D01*
X138218913Y-91101443D01*
X138212500Y-91172024D01*
X138212500Y-93035247D01*
X138218913Y-93105828D01*
X138218914Y-93105834D01*
X138236099Y-93160983D01*
X138235303Y-93169748D01*
X138233252Y-93172536D01*
X137843132Y-93562658D01*
X137835000Y-93566026D01*
X137826868Y-93562658D01*
X137823500Y-93554526D01*
X137823500Y-93523557D01*
X137826868Y-93515425D01*
X137870059Y-93472234D01*
X137928472Y-93413821D01*
X138016478Y-93268242D01*
X138067086Y-93105832D01*
X138073500Y-93035252D01*
X138073500Y-91172020D01*
X138067086Y-91101440D01*
X138016478Y-90939030D01*
X137928472Y-90793451D01*
X137808185Y-90673164D01*
X137808184Y-90673163D01*
X137760564Y-90644376D01*
X137662606Y-90585158D01*
X137662603Y-90585157D01*
X137662604Y-90585157D01*
X137500198Y-90534550D01*
X137500192Y-90534549D01*
X137459009Y-90530807D01*
X137429616Y-90528136D01*
X136316384Y-90528136D01*
X136292868Y-90530272D01*
X136245807Y-90534549D01*
X136245801Y-90534550D01*
X136083396Y-90585157D01*
X135937815Y-90673163D01*
X135817527Y-90793451D01*
X135729521Y-90939032D01*
X135678914Y-91101437D01*
X135678913Y-91101443D01*
X135672500Y-91172024D01*
X135672500Y-93035247D01*
X135678913Y-93105828D01*
X135678914Y-93105834D01*
X135729729Y-93268906D01*
X135729289Y-93269042D01*
X135729549Y-93276408D01*
X135726908Y-93280516D01*
X135461294Y-93546132D01*
X135453162Y-93549500D01*
X135280557Y-93549500D01*
X135272425Y-93546132D01*
X135269057Y-93538000D01*
X135272425Y-93529868D01*
X135330059Y-93472234D01*
X135388472Y-93413821D01*
X135476478Y-93268242D01*
X135527086Y-93105832D01*
X135533500Y-93035252D01*
X135533500Y-91172020D01*
X135527086Y-91101440D01*
X135476478Y-90939030D01*
X135388472Y-90793451D01*
X135268185Y-90673164D01*
X135268184Y-90673163D01*
X135220564Y-90644376D01*
X135122606Y-90585158D01*
X135122603Y-90585157D01*
X135122604Y-90585157D01*
X134960198Y-90534550D01*
X134960192Y-90534549D01*
X134919009Y-90530807D01*
X134889616Y-90528136D01*
X133776384Y-90528136D01*
X133752868Y-90530272D01*
X133705807Y-90534549D01*
X133705801Y-90534550D01*
X133543396Y-90585157D01*
X133397815Y-90673163D01*
X133277527Y-90793451D01*
X133189521Y-90939032D01*
X133138914Y-91101437D01*
X133138913Y-91101443D01*
X133132500Y-91172024D01*
X133132500Y-93035247D01*
X133138913Y-93105828D01*
X133138914Y-93105834D01*
X133174714Y-93220721D01*
X133189522Y-93268242D01*
X133230376Y-93335822D01*
X133277527Y-93413820D01*
X133393575Y-93529868D01*
X133396943Y-93538000D01*
X133393575Y-93546132D01*
X133385443Y-93549500D01*
X130304052Y-93549500D01*
X130295920Y-93546132D01*
X127302868Y-90553080D01*
X127299500Y-90544948D01*
X127299500Y-83255384D01*
X127262974Y-83071754D01*
X127262973Y-83071749D01*
X127233294Y-83000099D01*
X127191323Y-82898770D01*
X127087302Y-82743092D01*
X125250594Y-80906384D01*
X127049500Y-80906384D01*
X127049500Y-81093615D01*
X127086025Y-81277245D01*
X127086026Y-81277250D01*
X127098625Y-81307664D01*
X127099500Y-81312065D01*
X127099500Y-81404271D01*
X127102354Y-81434702D01*
X127147207Y-81562883D01*
X127147208Y-81562884D01*
X127178961Y-81605908D01*
X127227850Y-81672150D01*
X127283886Y-81713506D01*
X127337115Y-81752791D01*
X127337116Y-81752792D01*
X127337117Y-81752792D01*
X127337118Y-81752793D01*
X127465301Y-81797646D01*
X127482885Y-81799294D01*
X127488200Y-81801182D01*
X127549769Y-81842322D01*
X127722749Y-81913973D01*
X127906384Y-81950500D01*
X129038000Y-81950500D01*
X129046132Y-81953868D01*
X129049500Y-81962000D01*
X129049500Y-84406383D01*
X129049500Y-84593617D01*
X129049573Y-84593984D01*
X129086026Y-84777246D01*
X129086026Y-84777249D01*
X129136912Y-84900099D01*
X129157677Y-84950230D01*
X129261698Y-85105908D01*
X133261698Y-89105908D01*
X133394092Y-89238302D01*
X133549769Y-89342322D01*
X133704428Y-89406384D01*
X133722749Y-89413973D01*
X133722754Y-89413974D01*
X133783625Y-89426082D01*
X133783626Y-89426082D01*
X133906383Y-89450500D01*
X133906384Y-89450500D01*
X139601526Y-89450500D01*
X139609658Y-89453868D01*
X140915252Y-90759462D01*
X140918620Y-90767594D01*
X140915252Y-90775726D01*
X140897527Y-90793451D01*
X140809521Y-90939032D01*
X140758914Y-91101437D01*
X140758913Y-91101443D01*
X140752500Y-91172024D01*
X140752500Y-93035247D01*
X140758913Y-93105828D01*
X140758914Y-93105834D01*
X140794714Y-93220721D01*
X140809522Y-93268242D01*
X140850376Y-93335822D01*
X140888870Y-93399500D01*
X140897528Y-93413821D01*
X141017815Y-93534108D01*
X141163394Y-93622114D01*
X141325804Y-93672722D01*
X141396384Y-93679136D01*
X141396393Y-93679136D01*
X142509607Y-93679136D01*
X142509616Y-93679136D01*
X142580196Y-93672722D01*
X142742606Y-93622114D01*
X142888185Y-93534108D01*
X143008472Y-93413821D01*
X143096478Y-93268242D01*
X143147086Y-93105832D01*
X143153500Y-93035252D01*
X143153500Y-91172020D01*
X143147086Y-91101440D01*
X143096478Y-90939030D01*
X143008472Y-90793451D01*
X142906868Y-90691847D01*
X142903500Y-90683715D01*
X142903500Y-90359384D01*
X142866974Y-90175754D01*
X142866973Y-90175749D01*
X142814679Y-90049500D01*
X142795323Y-90002769D01*
X142717217Y-89885877D01*
X142691302Y-89847092D01*
X142558908Y-89714698D01*
X140605908Y-87761698D01*
X140605904Y-87761695D01*
X140450232Y-87657678D01*
X140348901Y-87615705D01*
X140277249Y-87586026D01*
X140185433Y-87567763D01*
X140185433Y-87567762D01*
X140108849Y-87552529D01*
X140093617Y-87549500D01*
X140093616Y-87549500D01*
X134398474Y-87549500D01*
X134390342Y-87546132D01*
X132004381Y-85160171D01*
X141914500Y-85160171D01*
X141914500Y-85367100D01*
X141954868Y-85570050D01*
X141954869Y-85570055D01*
X142016120Y-85717926D01*
X142034059Y-85761234D01*
X142149023Y-85933291D01*
X142295345Y-86079613D01*
X142467402Y-86194577D01*
X142658580Y-86273766D01*
X142861535Y-86314136D01*
X142861536Y-86314136D01*
X143068464Y-86314136D01*
X143068465Y-86314136D01*
X143271420Y-86273766D01*
X143462598Y-86194577D01*
X143634655Y-86079613D01*
X143780977Y-85933291D01*
X143895941Y-85761234D01*
X143975130Y-85570056D01*
X144015500Y-85367101D01*
X144015500Y-85160171D01*
X144454500Y-85160171D01*
X144454500Y-85367100D01*
X144494868Y-85570050D01*
X144494869Y-85570055D01*
X144556120Y-85717926D01*
X144574059Y-85761234D01*
X144689023Y-85933291D01*
X144835345Y-86079613D01*
X145007402Y-86194577D01*
X145198580Y-86273766D01*
X145401535Y-86314136D01*
X145401536Y-86314136D01*
X145608464Y-86314136D01*
X145608465Y-86314136D01*
X145811420Y-86273766D01*
X146002598Y-86194577D01*
X146138431Y-86103817D01*
X147911924Y-86103817D01*
X147961284Y-86113636D01*
X148128716Y-86113636D01*
X148178074Y-86103817D01*
X148044999Y-85970742D01*
X147911924Y-86103817D01*
X146138431Y-86103817D01*
X146174655Y-86079613D01*
X146320977Y-85933291D01*
X146435941Y-85761234D01*
X146515130Y-85570056D01*
X146555500Y-85367101D01*
X146555500Y-85179918D01*
X147195000Y-85179918D01*
X147195000Y-85347353D01*
X147204817Y-85396710D01*
X147337892Y-85263635D01*
X148752106Y-85263635D01*
X148885181Y-85396710D01*
X148895000Y-85347351D01*
X148895000Y-85179918D01*
X148891406Y-85161849D01*
X148891072Y-85160171D01*
X149534500Y-85160171D01*
X149534500Y-85367100D01*
X149574868Y-85570050D01*
X149574869Y-85570055D01*
X149636120Y-85717926D01*
X149654059Y-85761234D01*
X149769023Y-85933291D01*
X149915345Y-86079613D01*
X150087402Y-86194577D01*
X150278580Y-86273766D01*
X150481535Y-86314136D01*
X150481536Y-86314136D01*
X150688464Y-86314136D01*
X150688465Y-86314136D01*
X150891420Y-86273766D01*
X151082598Y-86194577D01*
X151254655Y-86079613D01*
X151400977Y-85933291D01*
X151515941Y-85761234D01*
X151595130Y-85570056D01*
X151635500Y-85367101D01*
X151635500Y-85160171D01*
X151595130Y-84957216D01*
X151515941Y-84766038D01*
X151400977Y-84593981D01*
X151254655Y-84447659D01*
X151237615Y-84436273D01*
X151082600Y-84332696D01*
X150891419Y-84253505D01*
X150891414Y-84253504D01*
X150728614Y-84221122D01*
X150688465Y-84213136D01*
X150481535Y-84213136D01*
X150448016Y-84219803D01*
X150278585Y-84253504D01*
X150278580Y-84253505D01*
X150087399Y-84332696D01*
X149915348Y-84447656D01*
X149769020Y-84593984D01*
X149654060Y-84766035D01*
X149574869Y-84957216D01*
X149574868Y-84957221D01*
X149534500Y-85160171D01*
X148891072Y-85160171D01*
X148885181Y-85130560D01*
X148752106Y-85263635D01*
X147337892Y-85263635D01*
X147204817Y-85130560D01*
X147195000Y-85179918D01*
X146555500Y-85179918D01*
X146555500Y-85160171D01*
X146515130Y-84957216D01*
X146435941Y-84766038D01*
X146320977Y-84593981D01*
X146174655Y-84447659D01*
X146157615Y-84436273D01*
X146138428Y-84423453D01*
X147911924Y-84423453D01*
X148044999Y-84556528D01*
X148178075Y-84423453D01*
X148128717Y-84413636D01*
X147961283Y-84413636D01*
X147911924Y-84423453D01*
X146138428Y-84423453D01*
X146002600Y-84332696D01*
X145811419Y-84253505D01*
X145811414Y-84253504D01*
X145648614Y-84221122D01*
X145608465Y-84213136D01*
X145401535Y-84213136D01*
X145368016Y-84219803D01*
X145198585Y-84253504D01*
X145198580Y-84253505D01*
X145007399Y-84332696D01*
X144835348Y-84447656D01*
X144689020Y-84593984D01*
X144574060Y-84766035D01*
X144494869Y-84957216D01*
X144494868Y-84957221D01*
X144454500Y-85160171D01*
X144015500Y-85160171D01*
X143975130Y-84957216D01*
X143895941Y-84766038D01*
X143780977Y-84593981D01*
X143634655Y-84447659D01*
X143617615Y-84436273D01*
X143462600Y-84332696D01*
X143271419Y-84253505D01*
X143271414Y-84253504D01*
X143108614Y-84221122D01*
X143068465Y-84213136D01*
X142861535Y-84213136D01*
X142828016Y-84219803D01*
X142658585Y-84253504D01*
X142658580Y-84253505D01*
X142467399Y-84332696D01*
X142295348Y-84447656D01*
X142149020Y-84593984D01*
X142034060Y-84766035D01*
X141954869Y-84957216D01*
X141954868Y-84957221D01*
X141914500Y-85160171D01*
X132004381Y-85160171D01*
X130953868Y-84109658D01*
X130950500Y-84101526D01*
X130950500Y-82620171D01*
X141914500Y-82620171D01*
X141914500Y-82827100D01*
X141954868Y-83030050D01*
X141954869Y-83030055D01*
X141972142Y-83071754D01*
X142034059Y-83221234D01*
X142149023Y-83393291D01*
X142295345Y-83539613D01*
X142467402Y-83654577D01*
X142658580Y-83733766D01*
X142861535Y-83774136D01*
X142861536Y-83774136D01*
X143068464Y-83774136D01*
X143068465Y-83774136D01*
X143271420Y-83733766D01*
X143462598Y-83654577D01*
X143634655Y-83539613D01*
X143780977Y-83393291D01*
X143895941Y-83221234D01*
X143975130Y-83030056D01*
X144015500Y-82827101D01*
X144015500Y-82620171D01*
X144454500Y-82620171D01*
X144454500Y-82827100D01*
X144494868Y-83030050D01*
X144494869Y-83030055D01*
X144512142Y-83071754D01*
X144574059Y-83221234D01*
X144689023Y-83393291D01*
X144835345Y-83539613D01*
X145007402Y-83654577D01*
X145198580Y-83733766D01*
X145401535Y-83774136D01*
X145401536Y-83774136D01*
X145608464Y-83774136D01*
X145608465Y-83774136D01*
X145811420Y-83733766D01*
X146002598Y-83654577D01*
X146174655Y-83539613D01*
X146320977Y-83393291D01*
X146435941Y-83221234D01*
X146515130Y-83030056D01*
X146555500Y-82827101D01*
X146555500Y-82620171D01*
X146994500Y-82620171D01*
X146994500Y-82827100D01*
X147034868Y-83030050D01*
X147034869Y-83030055D01*
X147052142Y-83071754D01*
X147114059Y-83221234D01*
X147229023Y-83393291D01*
X147375345Y-83539613D01*
X147547402Y-83654577D01*
X147738580Y-83733766D01*
X147941535Y-83774136D01*
X147941536Y-83774136D01*
X148148464Y-83774136D01*
X148148465Y-83774136D01*
X148351420Y-83733766D01*
X148542598Y-83654577D01*
X148714655Y-83539613D01*
X148860977Y-83393291D01*
X148975941Y-83221234D01*
X149055130Y-83030056D01*
X149095500Y-82827101D01*
X149095500Y-82620171D01*
X149534500Y-82620171D01*
X149534500Y-82827100D01*
X149574868Y-83030050D01*
X149574869Y-83030055D01*
X149592142Y-83071754D01*
X149654059Y-83221234D01*
X149769023Y-83393291D01*
X149915345Y-83539613D01*
X150087402Y-83654577D01*
X150278580Y-83733766D01*
X150481535Y-83774136D01*
X150481536Y-83774136D01*
X150688464Y-83774136D01*
X150688465Y-83774136D01*
X150891420Y-83733766D01*
X151082598Y-83654577D01*
X151254655Y-83539613D01*
X151400977Y-83393291D01*
X151515941Y-83221234D01*
X151595130Y-83030056D01*
X151635500Y-82827101D01*
X151635500Y-82620171D01*
X151595130Y-82417216D01*
X151515941Y-82226038D01*
X151400977Y-82053981D01*
X151254655Y-81907659D01*
X151095300Y-81801182D01*
X151082600Y-81792696D01*
X150891419Y-81713505D01*
X150891414Y-81713504D01*
X150728614Y-81681122D01*
X150688465Y-81673136D01*
X150481535Y-81673136D01*
X150448016Y-81679803D01*
X150278585Y-81713504D01*
X150278580Y-81713505D01*
X150087399Y-81792696D01*
X149915348Y-81907656D01*
X149769020Y-82053984D01*
X149654060Y-82226035D01*
X149574869Y-82417216D01*
X149574868Y-82417221D01*
X149534500Y-82620171D01*
X149095500Y-82620171D01*
X149055130Y-82417216D01*
X148975941Y-82226038D01*
X148860977Y-82053981D01*
X148714655Y-81907659D01*
X148555300Y-81801182D01*
X148542600Y-81792696D01*
X148351419Y-81713505D01*
X148351414Y-81713504D01*
X148188614Y-81681122D01*
X148148465Y-81673136D01*
X147941535Y-81673136D01*
X147908016Y-81679803D01*
X147738585Y-81713504D01*
X147738580Y-81713505D01*
X147547399Y-81792696D01*
X147375348Y-81907656D01*
X147229020Y-82053984D01*
X147114060Y-82226035D01*
X147034869Y-82417216D01*
X147034868Y-82417221D01*
X146994500Y-82620171D01*
X146555500Y-82620171D01*
X146515130Y-82417216D01*
X146435941Y-82226038D01*
X146320977Y-82053981D01*
X146174655Y-81907659D01*
X146015300Y-81801182D01*
X146002600Y-81792696D01*
X145811419Y-81713505D01*
X145811414Y-81713504D01*
X145648614Y-81681122D01*
X145608465Y-81673136D01*
X145401535Y-81673136D01*
X145368016Y-81679803D01*
X145198585Y-81713504D01*
X145198580Y-81713505D01*
X145007399Y-81792696D01*
X144835348Y-81907656D01*
X144689020Y-82053984D01*
X144574060Y-82226035D01*
X144494869Y-82417216D01*
X144494868Y-82417221D01*
X144454500Y-82620171D01*
X144015500Y-82620171D01*
X143975130Y-82417216D01*
X143895941Y-82226038D01*
X143780977Y-82053981D01*
X143634655Y-81907659D01*
X143475300Y-81801182D01*
X143462600Y-81792696D01*
X143271419Y-81713505D01*
X143271414Y-81713504D01*
X143108614Y-81681122D01*
X143068465Y-81673136D01*
X142861535Y-81673136D01*
X142828016Y-81679803D01*
X142658585Y-81713504D01*
X142658580Y-81713505D01*
X142467399Y-81792696D01*
X142295348Y-81907656D01*
X142149020Y-82053984D01*
X142034060Y-82226035D01*
X141954869Y-82417216D01*
X141954868Y-82417221D01*
X141914500Y-82620171D01*
X130950500Y-82620171D01*
X130950500Y-80906384D01*
X130913974Y-80722754D01*
X130913973Y-80722749D01*
X130901375Y-80692334D01*
X130900500Y-80687933D01*
X130900500Y-80595742D01*
X130900500Y-80595734D01*
X130897646Y-80565301D01*
X130875672Y-80502504D01*
X130861713Y-80462610D01*
X130852793Y-80437118D01*
X130772150Y-80327850D01*
X130674447Y-80255742D01*
X130662884Y-80247208D01*
X130662883Y-80247207D01*
X130534701Y-80202354D01*
X130517113Y-80200704D01*
X130511799Y-80198816D01*
X130450233Y-80157679D01*
X130277250Y-80086026D01*
X130277245Y-80086025D01*
X130129943Y-80056725D01*
X130093616Y-80049500D01*
X127906384Y-80049500D01*
X127876056Y-80055532D01*
X127722754Y-80086025D01*
X127722749Y-80086026D01*
X127549766Y-80157679D01*
X127488199Y-80198816D01*
X127482885Y-80200704D01*
X127465298Y-80202354D01*
X127337116Y-80247207D01*
X127337115Y-80247208D01*
X127227851Y-80327849D01*
X127227849Y-80327851D01*
X127147208Y-80437115D01*
X127147207Y-80437116D01*
X127102354Y-80565297D01*
X127099500Y-80595728D01*
X127099500Y-80687933D01*
X127098625Y-80692334D01*
X127086026Y-80722749D01*
X127086025Y-80722754D01*
X127049500Y-80906384D01*
X125250594Y-80906384D01*
X124953868Y-80609658D01*
X124950500Y-80601526D01*
X124950500Y-79500000D01*
X127349554Y-79500000D01*
X127369758Y-79530238D01*
X127369761Y-79530241D01*
X127452453Y-79585493D01*
X127452458Y-79585495D01*
X127499999Y-79594952D01*
X127500000Y-79594951D01*
X127500000Y-79500001D01*
X128500000Y-79500001D01*
X128500000Y-79594952D01*
X128547541Y-79585495D01*
X128547546Y-79585493D01*
X128630238Y-79530241D01*
X128630241Y-79530238D01*
X128650446Y-79500000D01*
X128500001Y-79500000D01*
X128500000Y-79500001D01*
X127500000Y-79500001D01*
X127499999Y-79500000D01*
X127349554Y-79500000D01*
X124950500Y-79500000D01*
X124950500Y-78500000D01*
X127349554Y-78500000D01*
X127499999Y-78500000D01*
X127500000Y-78499999D01*
X128500000Y-78499999D01*
X128500001Y-78500000D01*
X128650445Y-78500000D01*
X128630241Y-78469761D01*
X128630238Y-78469758D01*
X128547544Y-78414505D01*
X128547543Y-78414504D01*
X128500000Y-78405047D01*
X128500000Y-78499999D01*
X127500000Y-78499999D01*
X127500000Y-78405047D01*
X127452456Y-78414504D01*
X127452455Y-78414505D01*
X127369761Y-78469758D01*
X127369758Y-78469761D01*
X127349554Y-78500000D01*
X124950500Y-78500000D01*
X124950500Y-75230253D01*
X124938867Y-75171771D01*
X124938867Y-75171769D01*
X124894552Y-75105448D01*
X124894550Y-75105446D01*
X124828232Y-75061134D01*
X124828233Y-75061134D01*
X124828231Y-75061133D01*
X124828229Y-75061132D01*
X124828228Y-75061132D01*
X124798788Y-75055276D01*
X124769748Y-75049500D01*
X123230252Y-75049500D01*
X123206988Y-75054127D01*
X123171771Y-75061132D01*
X123171767Y-75061134D01*
X123105449Y-75105446D01*
X123105446Y-75105449D01*
X123061134Y-75171767D01*
X123061132Y-75171771D01*
X123049500Y-75230253D01*
X119800500Y-75230253D01*
X119800500Y-73906384D01*
X129049500Y-73906384D01*
X129049500Y-79093615D01*
X129086025Y-79277245D01*
X129086026Y-79277250D01*
X129098625Y-79307664D01*
X129099500Y-79312065D01*
X129099500Y-79404271D01*
X129102354Y-79434702D01*
X129147207Y-79562883D01*
X129147208Y-79562884D01*
X129187528Y-79617516D01*
X129227850Y-79672150D01*
X129312546Y-79734658D01*
X129337115Y-79752791D01*
X129337116Y-79752792D01*
X129337117Y-79752792D01*
X129337118Y-79752793D01*
X129465301Y-79797646D01*
X129482885Y-79799294D01*
X129488199Y-79801182D01*
X129549766Y-79842320D01*
X129549769Y-79842322D01*
X129722749Y-79913973D01*
X129906384Y-79950500D01*
X129906385Y-79950500D01*
X130093615Y-79950500D01*
X130093616Y-79950500D01*
X130277251Y-79913973D01*
X130450231Y-79842322D01*
X130511800Y-79801181D01*
X130517112Y-79799294D01*
X130534699Y-79797646D01*
X130662882Y-79752793D01*
X130772150Y-79672150D01*
X130852793Y-79562882D01*
X130897646Y-79434699D01*
X130900500Y-79404266D01*
X130900500Y-79312065D01*
X130901375Y-79307664D01*
X130913973Y-79277250D01*
X130913974Y-79277245D01*
X130950500Y-79093615D01*
X130950500Y-78822474D01*
X130953868Y-78814342D01*
X130962000Y-78810974D01*
X130970132Y-78814342D01*
X132310334Y-80154544D01*
X132442728Y-80286938D01*
X132598405Y-80390958D01*
X132771385Y-80462609D01*
X132863202Y-80480872D01*
X132955019Y-80499136D01*
X132955020Y-80499136D01*
X141573001Y-80499136D01*
X141581133Y-80502504D01*
X141584501Y-80510636D01*
X141584501Y-80569121D01*
X141590587Y-80625748D01*
X141590588Y-80625750D01*
X141638372Y-80753862D01*
X141720313Y-80863323D01*
X141829774Y-80945264D01*
X141957886Y-80993048D01*
X142014515Y-80999136D01*
X142655484Y-80999135D01*
X142712114Y-80993048D01*
X142840226Y-80945264D01*
X142949687Y-80863323D01*
X143031628Y-80753862D01*
X143079412Y-80625750D01*
X143085500Y-80569121D01*
X143085499Y-80139775D01*
X143087361Y-80133636D01*
X143690000Y-80133636D01*
X143690000Y-80550723D01*
X143705954Y-80630932D01*
X143705956Y-80630937D01*
X143766734Y-80721898D01*
X143766737Y-80721901D01*
X143857698Y-80782679D01*
X143857703Y-80782681D01*
X143937913Y-80798636D01*
X144542087Y-80798636D01*
X144622296Y-80782681D01*
X144622301Y-80782679D01*
X144713262Y-80721901D01*
X144713265Y-80721898D01*
X144774043Y-80630937D01*
X144774045Y-80630932D01*
X144790000Y-80550723D01*
X144790000Y-80133636D01*
X144462078Y-80461557D01*
X144453946Y-80464925D01*
X144445814Y-80461557D01*
X144239999Y-80255742D01*
X144034185Y-80461557D01*
X144026053Y-80464925D01*
X144017921Y-80461557D01*
X143690000Y-80133636D01*
X143087361Y-80133636D01*
X143087437Y-80133387D01*
X143096674Y-80119563D01*
X143177322Y-79998867D01*
X143248973Y-79825887D01*
X143285500Y-79642252D01*
X143285500Y-79455020D01*
X143248973Y-79271385D01*
X143177322Y-79098405D01*
X143087437Y-78963882D01*
X143085499Y-78957493D01*
X143085499Y-78546548D01*
X143690000Y-78546548D01*
X143690000Y-78963634D01*
X144017921Y-78635714D01*
X144026053Y-78632346D01*
X144034185Y-78635714D01*
X144239999Y-78841528D01*
X144445814Y-78635714D01*
X144453946Y-78632346D01*
X144462078Y-78635714D01*
X144790000Y-78963635D01*
X144790000Y-78546548D01*
X144774045Y-78466339D01*
X144774043Y-78466334D01*
X144713265Y-78375373D01*
X144713262Y-78375370D01*
X144622301Y-78314592D01*
X144622296Y-78314590D01*
X144542087Y-78298636D01*
X143937913Y-78298636D01*
X143857703Y-78314590D01*
X143857698Y-78314592D01*
X143766737Y-78375370D01*
X143766734Y-78375373D01*
X143705956Y-78466334D01*
X143705954Y-78466339D01*
X143690000Y-78546548D01*
X143085499Y-78546548D01*
X143085499Y-78528150D01*
X143079412Y-78471523D01*
X143079412Y-78471522D01*
X143031628Y-78343410D01*
X142949687Y-78233949D01*
X142840226Y-78152008D01*
X142712112Y-78104223D01*
X142655485Y-78098136D01*
X142014515Y-78098136D01*
X141957887Y-78104223D01*
X141957886Y-78104224D01*
X141829773Y-78152008D01*
X141720315Y-78233947D01*
X141720311Y-78233951D01*
X141638372Y-78343409D01*
X141590587Y-78471523D01*
X141584500Y-78528150D01*
X141584500Y-78586636D01*
X141581132Y-78594768D01*
X141573000Y-78598136D01*
X133447110Y-78598136D01*
X133438978Y-78594768D01*
X130953868Y-76109658D01*
X130950500Y-76101526D01*
X130950500Y-75007024D01*
X133132500Y-75007024D01*
X133132500Y-76870247D01*
X133138913Y-76940828D01*
X133138914Y-76940834D01*
X133189521Y-77103239D01*
X133189522Y-77103242D01*
X133277528Y-77248821D01*
X133397815Y-77369108D01*
X133543394Y-77457114D01*
X133705804Y-77507722D01*
X133776384Y-77514136D01*
X133776393Y-77514136D01*
X134889607Y-77514136D01*
X134889616Y-77514136D01*
X134960196Y-77507722D01*
X135122606Y-77457114D01*
X135268185Y-77369108D01*
X135388472Y-77248821D01*
X135476478Y-77103242D01*
X135527086Y-76940832D01*
X135533500Y-76870252D01*
X135533500Y-75007020D01*
X135527086Y-74936440D01*
X135476478Y-74774030D01*
X135388472Y-74628451D01*
X135268185Y-74508164D01*
X135268184Y-74508163D01*
X135220564Y-74479376D01*
X135122606Y-74420158D01*
X135122603Y-74420157D01*
X135122604Y-74420157D01*
X134960198Y-74369550D01*
X134960192Y-74369549D01*
X134919009Y-74365807D01*
X134889616Y-74363136D01*
X133776384Y-74363136D01*
X133752868Y-74365272D01*
X133705807Y-74369549D01*
X133705801Y-74369550D01*
X133543396Y-74420157D01*
X133397815Y-74508163D01*
X133277527Y-74628451D01*
X133189521Y-74774032D01*
X133138914Y-74936437D01*
X133138913Y-74936443D01*
X133132500Y-75007024D01*
X130950500Y-75007024D01*
X130950500Y-74398473D01*
X130953867Y-74390342D01*
X132988201Y-72356009D01*
X133092223Y-72200331D01*
X133163873Y-72027350D01*
X133200400Y-71843717D01*
X133200400Y-71656483D01*
X133200400Y-68924384D01*
X133163873Y-68740749D01*
X133092222Y-68567769D01*
X132988202Y-68412092D01*
X132953768Y-68377658D01*
X132950400Y-68369526D01*
X132950400Y-68339253D01*
X132938767Y-68280771D01*
X132938767Y-68280769D01*
X132894452Y-68214448D01*
X132894450Y-68214446D01*
X132828132Y-68170134D01*
X132828133Y-68170134D01*
X132828131Y-68170133D01*
X132828129Y-68170132D01*
X132828128Y-68170132D01*
X132798688Y-68164276D01*
X132769648Y-68158500D01*
X132769646Y-68158500D01*
X132660949Y-68158500D01*
X132656548Y-68157625D01*
X132527150Y-68104026D01*
X132527145Y-68104025D01*
X132379843Y-68074725D01*
X132343516Y-68067500D01*
X132156284Y-68067500D01*
X132125956Y-68073532D01*
X131972654Y-68104025D01*
X131972649Y-68104026D01*
X131843252Y-68157625D01*
X131838851Y-68158500D01*
X131730152Y-68158500D01*
X131706888Y-68163127D01*
X131671671Y-68170132D01*
X131671667Y-68170134D01*
X131605349Y-68214446D01*
X131605346Y-68214449D01*
X131561034Y-68280767D01*
X131561032Y-68280771D01*
X131549400Y-68339253D01*
X131549400Y-68369526D01*
X131546032Y-68377658D01*
X131511595Y-68412095D01*
X131407579Y-68567766D01*
X131335926Y-68740749D01*
X131335925Y-68740754D01*
X131299400Y-68924384D01*
X131299400Y-71351626D01*
X131296032Y-71359758D01*
X129261695Y-73394095D01*
X129157678Y-73549767D01*
X129142659Y-73586027D01*
X129086026Y-73722749D01*
X129086025Y-73722754D01*
X129049500Y-73906384D01*
X119800500Y-73906384D01*
X119800500Y-71750000D01*
X123957107Y-71750000D01*
X124042892Y-71750000D01*
X124000000Y-71707106D01*
X123957107Y-71750000D01*
X119800500Y-71750000D01*
X119800500Y-71042891D01*
X123250000Y-71042891D01*
X123292892Y-70999999D01*
X123250000Y-70957107D01*
X123250000Y-71042891D01*
X119800500Y-71042891D01*
X119800500Y-70934174D01*
X123500000Y-70934174D01*
X123500000Y-71065826D01*
X123534075Y-71192993D01*
X123599901Y-71307007D01*
X123692993Y-71400099D01*
X123807007Y-71465925D01*
X123934174Y-71500000D01*
X124065826Y-71500000D01*
X124192993Y-71465925D01*
X124307007Y-71400099D01*
X124400099Y-71307007D01*
X124465925Y-71192993D01*
X124500000Y-71065826D01*
X124500000Y-71000000D01*
X124707106Y-71000000D01*
X124750000Y-71042892D01*
X124750000Y-70957107D01*
X124707106Y-71000000D01*
X124500000Y-71000000D01*
X124500000Y-70934174D01*
X124465925Y-70807007D01*
X124400099Y-70692993D01*
X124307007Y-70599901D01*
X124192993Y-70534075D01*
X124065826Y-70500000D01*
X123934174Y-70500000D01*
X123807007Y-70534075D01*
X123692993Y-70599901D01*
X123599901Y-70692993D01*
X123534075Y-70807007D01*
X123500000Y-70934174D01*
X119800500Y-70934174D01*
X119800500Y-70250000D01*
X123957108Y-70250000D01*
X124000000Y-70292892D01*
X124042892Y-70250000D01*
X123957108Y-70250000D01*
X119800500Y-70250000D01*
X119800500Y-65643710D01*
X121149500Y-65643710D01*
X121149500Y-65856289D01*
X121182753Y-66066240D01*
X121248441Y-66268408D01*
X121248442Y-66268411D01*
X121248443Y-66268412D01*
X121344949Y-66457816D01*
X121344952Y-66457820D01*
X121444224Y-66594458D01*
X121469896Y-66629792D01*
X121620208Y-66780104D01*
X121792184Y-66905051D01*
X121981588Y-67001557D01*
X122183757Y-67067246D01*
X122288735Y-67083873D01*
X122393711Y-67100500D01*
X122393713Y-67100500D01*
X122606289Y-67100500D01*
X122690269Y-67087198D01*
X122816243Y-67067246D01*
X123018412Y-67001557D01*
X123207816Y-66905051D01*
X123379792Y-66780104D01*
X123530104Y-66629792D01*
X123655051Y-66457816D01*
X123751557Y-66268412D01*
X123817246Y-66066243D01*
X123850500Y-65856287D01*
X123850500Y-65643713D01*
X123817246Y-65433757D01*
X123751557Y-65231588D01*
X123655051Y-65042184D01*
X123530104Y-64870208D01*
X123379792Y-64719896D01*
X123207816Y-64594949D01*
X123018412Y-64498443D01*
X123018411Y-64498442D01*
X123018408Y-64498441D01*
X122816240Y-64432753D01*
X122606289Y-64399500D01*
X122606287Y-64399500D01*
X122393713Y-64399500D01*
X122393711Y-64399500D01*
X122183759Y-64432753D01*
X121981591Y-64498441D01*
X121884932Y-64547691D01*
X121792184Y-64594949D01*
X121792181Y-64594950D01*
X121792179Y-64594952D01*
X121620211Y-64719893D01*
X121469893Y-64870211D01*
X121344952Y-65042179D01*
X121344950Y-65042181D01*
X121344949Y-65042184D01*
X121322610Y-65086027D01*
X121248441Y-65231591D01*
X121182753Y-65433759D01*
X121149500Y-65643710D01*
X119800500Y-65643710D01*
X119800500Y-63062000D01*
X119803868Y-63053868D01*
X119812000Y-63050500D01*
X132134468Y-63050500D01*
X132142600Y-63053868D01*
G37*
%TD.AperFunction*%
%TD*%
M02*
